:SAMPLES-PER-SECOND 30
:FULLY-SPECIFIED
:DEGREES
273
root  -1.93229 40.9474 0.604861 173.897 -84.2559 -174.359
RightUpLeg  2.58298 -0.985829 -0.880402
RightLeg  -1.60181 -14.6035 0.8054
RightFoot  0.0668645 -0.353764 3.4883
RightToes  -3.13006e-008 1.75238e-005 3.56266e-009
Spine  -6.17178 0.826741 -0.936845
Spine1  14.0839 2.16448 -3.98971
HEad  -27.5242 -62.131 26.6009
LeftShoulder1  2.3772 -4.43951 -23.6942
LeftArm  -53.2792 -7.10576 -44.5149
LeftForeArm  149.394 -65.7931 -155.923
LeftHand  0.285543 -3.54109 -3.46923
RightShoulder  2.56627 5.85357 21.1227
RightArm  -40.5247 16.6679 30.1737
RightForeArm  151.617 74.8729 141.316
RightHand  0.0744882 3.99373 0.595396
LeftUpLeg  2.89003 1.70967 2.93158
LeftLeg  -1.18132 17.4385 -0.671751
LeftFoot  -0.346244 0.312275 -3.21458
LeftToes  4.76866e-008 1.46233e-008 1.30548e-009
274
root  -1.97861 40.9456 0.645384 174.245 -83.7712 -174.852
RightUpLeg  2.65807 -0.860848 -0.870381
RightLeg  -1.40577 -14.2316 0.561995
RightFoot  -0.0162602 -0.365016 3.65087
RightToes  -3.13006e-008 1.75238e-005 3.56266e-009
Spine  -6.28987 0.512027 -1.31149
Spine1  14.8807 1.75038 -3.55223
HEad  -28.4534 -62.0081 26.2926
LeftShoulder1  2.31522 -4.16875 -23.9509
LeftArm  -52.4634 -1.06174 -42.7914
LeftForeArm  147.35 -64.5219 -156.984
LeftHand  0.328431 -3.88892 -3.84457
RightShoulder  2.41698 5.38893 20.8655
RightArm  -38.322 13.2128 26.2723
RightForeArm  142.853 74.0737 141.719
RightHand  0.581761 3.81599 7.12571
LeftUpLeg  3.1985 1.77302 2.88122
LeftLeg  -1.19938 17.8701 -0.734292
LeftFoot  -0.479278 0.317537 -3.30744
LeftToes  4.76866e-008 1.46233e-008 1.30548e-009
275
root  -2.02758 40.942 0.70035 175.008 -82.8488 -175.873
RightUpLeg  2.73594 -0.84681 -0.971893
RightLeg  -1.06863 -13.2834 0.338194
RightFoot  -0.141536 -0.379678 3.86696
RightToes  -3.13006e-008 1.75238e-005 3.56266e-009
Spine  -5.8719 0.261634 -1.7151
Spine1  14.9848 1.38748 -3.16413
HEad  -28.8496 -61.3865 25.4319
LeftShoulder1  2.27777 -4.07975 -23.8052
LeftArm  -51.4065 6.24871 -41.4884
LeftForeArm  144.963 -63.1059 -158.065
LeftHand  0.514206 -4.70906 -5.6085
RightShoulder  2.29134 4.99844 20.6212
RightArm  -36.8653 11.3368 22.1088
RightForeArm  128.074 73.5385 140.416
RightHand  1.58676 4.62685 17.8967
LeftUpLeg  3.83487 1.81756 2.76048
LeftLeg  -1.52966 18.7548 -0.902828
LeftFoot  -0.539265 0.310647 -3.25009
LeftToes  4.76866e-008 1.46233e-008 1.30548e-009
276
root  -2.06314 40.9369 0.762715 174.94 -81.8186 -175.954
RightUpLeg  2.76931 -0.735108 -0.956723
RightLeg  -0.970435 -12.3864 0.197507
RightFoot  -0.102936 -0.381199 3.86506
RightToes  -3.13006e-008 1.75238e-005 3.56266e-009
Spine  -5.00153 0.0965069 -1.76436
Spine1  14.5224 1.12957 -3.03008
HEad  -29.5784 -60.5556 25.2282
LeftShoulder1  2.26286 -4.07108 -23.633
LeftArm  -49.8334 13.4471 -40.8868
LeftForeArm  143.002 -62.1873 -158.669
LeftHand  0.634892 -5.78858 -6.26217
RightShoulder  2.23514 4.95346 20.0656
RightArm  -37.3643 8.81161 17.3989
RightForeArm  115.909 72.2659 141.518
RightHand  2.1237 4.84564 23.3724
LeftUpLeg  4.15786 1.98145 2.76968
LeftLeg  -1.45686 19.6039 -0.997614
LeftFoot  -0.772179 0.298534 -3.17774
LeftToes  4.76866e-008 1.46233e-008 1.30548e-009
277
root  -2.11671 40.9351 0.84431 174.868 -81.0474 -175.792
RightUpLeg  2.65707 -0.697893 -1.01106
RightLeg  -0.974689 -11.6231 0.172357
RightFoot  -0.0462952 -0.388453 3.92194
RightToes  -3.13006e-008 1.75238e-005 3.56266e-009
Spine  -4.41645 -0.0528034 -1.47393
Spine1  14.1406 0.921502 -3.04021
HEad  -30.4599 -59.9654 25.481
LeftShoulder1  2.18552 -3.87395 -23.3687
LeftArm  -48.3115 19.495 -41.3948
LeftForeArm  142.659 -61.6016 -159.124
LeftHand  0.746954 -6.08307 -7.20628
RightShoulder  2.15471 4.80729 19.5128
RightArm  -42.3917 6.33 13.2641
RightForeArm  105.583 71.3199 142.289
RightHand  2.08961 4.44142 23.9461
LeftUpLeg  4.18535 2.01712 2.70444
LeftLeg  -1.34639 20.3306 -1.00589
LeftFoot  -0.95993 0.285659 -3.08132
LeftToes  4.76866e-008 1.46233e-008 1.30548e-009
278
root  -2.15511 40.9368 0.928105 174.675 -80.6043 -175.346
RightUpLeg  2.39667 -0.59579 -1.01314
RightLeg  -1.00093 -11.267 0.106051
RightFoot  0.0934939 -0.416316 4.16206
RightToes  -3.13006e-008 1.75238e-005 3.56266e-009
Spine  -3.93192 -0.222309 -0.959238
Spine1  13.8083 0.81351 -3.44063
HEad  -32.2867 -59.9091 26.6386
LeftShoulder1  2.11312 -3.69678 -23.0757
LeftArm  -47.5176 24.0234 -41.9666
LeftForeArm  142.541 -61.2688 -159.378
LeftHand  0.875346 -6.20991 -8.40236
RightShoulder  1.82479 3.75783 18.6637
RightArm  -51.6786 5.06973 10.8613
RightForeArm  93.8064 72.6503 137.445
RightHand  1.75243 3.61027 22.2369
LeftUpLeg  3.96573 1.96745 2.63917
LeftLeg  -1.24487 20.8063 -0.974428
LeftFoot  -1.09891 0.26922 -2.93104
LeftToes  4.76866e-008 1.46233e-008 1.30548e-009
279
root  -2.21261 40.9357 1.0158 175.015 -80.5237 -175.328
RightUpLeg  2.18885 -0.695695 -1.19772
RightLeg  -1.26035 -11.1517 0.227475
RightFoot  0.186283 -0.422691 4.19715
RightToes  -3.13006e-008 1.75238e-005 3.56266e-009
Spine  -3.59135 -0.563013 -0.587444
Spine1  13.3834 0.567516 -3.95654
HEad  -32.511 -60.0584 27.1281
LeftShoulder1  2.04573 -3.49134 -22.9694
LeftArm  -47.7839 27.4609 -43.4852
LeftForeArm  142.556 -60.4775 -159.997
LeftHand  0.910419 -6.17744 -8.78198
RightShoulder  1.49798 2.70899 17.5671
RightArm  -61.8888 3.64767 8.89298
RightForeArm  75.1865 76.0422 121.178
RightHand  1.55479 4.77475 17.0981
LeftUpLeg  3.59206 1.88243 2.50854
LeftLeg  -1.09392 20.9123 -0.983565
LeftFoot  -1.23798 0.256493 -2.81373
LeftToes  4.76866e-008 1.46233e-008 1.30548e-009
280
root  -2.275 40.9428 1.07924 175.526 -81.1157 -175.347
RightUpLeg  1.93703 -0.77708 -1.38289
RightLeg  -1.56388 -11.6411 0.328222
RightFoot  0.278519 -0.446969 4.4066
RightToes  -3.13006e-008 1.75238e-005 3.56266e-009
Spine  -3.34545 -1.13408 -0.748372
Spine1  12.7823 -0.0499878 -3.94639
HEad  -32.7633 -60.5988 27.6049
LeftShoulder1  1.98992 -3.25977 -23.1506
LeftArm  -48.4092 29.8986 -45.3139
LeftForeArm  143.021 -59.8962 -160.47
LeftHand  0.925726 -7.10791 -8.20937
RightShoulder  1.20007 1.76825 16.1053
RightArm  -71.3816 2.63288 7.04796
RightForeArm  36.5971 77.8951 85.5993
RightHand  0.928272 4.14305 11.252
LeftUpLeg  3.01789 1.68452 2.32525
LeftLeg  -1.01813 20.527 -0.950303
LeftFoot  -1.26568 0.254716 -2.7829
LeftToes  4.76866e-008 1.46233e-008 1.30548e-009
281
root  -2.35604 40.9485 1.11796 175.454 -81.9657 -174.949
RightUpLeg  1.98489 -0.829532 -1.46073
RightLeg  -1.92066 -12.4917 0.423957
RightFoot  0.315658 -0.459276 4.53076
RightToes  -3.13006e-008 1.75238e-005 3.56266e-009
Spine  -3.47953 -1.63166 -0.398396
Spine1  12.8695 -0.384272 -4.65091
HEad  -32.2776 -62.0121 27.9479
LeftShoulder1  1.9638 -3.19321 -23.0474
LeftArm  -49.4721 30.9231 -47.6577
LeftForeArm  142.055 -59.4055 -160.741
LeftHand  0.977076 -6.96591 -8.79305
RightShoulder  0.876413 0.578964 14.6822
RightArm  -78.9655 1.89141 5.42131
RightForeArm  -2.63658 74.0898 49.0974
RightHand  0.172746 5.93955 1.5114
LeftUpLeg  2.7419 1.38232 2.13095
LeftLeg  -1.18295 20.0168 -0.817131
LeftFoot  -1.15788 0.247282 -2.71179
LeftToes  4.76866e-008 1.46233e-008 1.30548e-009
282
root  -2.4147 40.9498 1.15014 175.595 -83.0322 -174.858
RightUpLeg  1.94192 -0.868576 -1.57333
RightLeg  -1.90016 -13.4762 0.382525
RightFoot  0.182295 -0.472009 4.73594
RightToes  -3.13006e-008 1.75238e-005 3.56266e-009
Spine  -3.45275 -2.28086 -0.452236
Spine1  12.9325 -0.954354 -5.01831
HEad  -31.5327 -63.5573 27.3211
LeftShoulder1  1.98329 -3.21785 -23.2393
LeftArm  -51.2407 31.1256 -50.3019
LeftForeArm  142.076 -58.9776 -161.044
LeftHand  0.981458 -6.95461 -8.85441
RightShoulder  0.563501 -0.699715 13.2487
RightArm  -84.923 1.87532 3.9252
RightForeArm  -22.6145 66.541 30.0279
RightHand  -0.920137 6.82518 -9.09302
LeftUpLeg  2.44871 1.34724 2.06182
LeftLeg  -1.22277 18.9992 -0.938998
LeftFoot  -1.1124 0.226338 -2.44969
LeftToes  4.76866e-008 1.46233e-008 1.30548e-009
283
root  -2.48085 40.9496 1.16396 175.488 -84.041 -174.783
RightUpLeg  2.24001 -1.04645 -1.70644
RightLeg  -1.97878 -14.2872 0.475715
RightFoot  0.110117 -0.461777 4.61274
RightToes  -3.13006e-008 1.75238e-005 3.56266e-009
Spine  -3.52123 -3.09655 -0.645686
Spine1  13.298 -1.70715 -5.32445
HEad  -30.0161 -64.8634 25.5241
LeftShoulder1  1.87695 -2.87787 -23.1384
LeftArm  -52.411 30.9182 -52.7249
LeftForeArm  141.992 -58.7702 -161.181
LeftHand  0.911079 -7.37104 -7.89588
RightShoulder  0.342526 -1.71215 12.1997
RightArm  -91.8073 2.93391 3.42892
RightForeArm  -30.7873 59.2159 21.5328
RightHand  -1.51811 7.64834 -13.8725
LeftUpLeg  2.49443 1.44644 2.07409
LeftLeg  -1.2839 17.8921 -1.12372
LeftFoot  -1.1079 0.215038 -2.32866
LeftToes  4.76866e-008 1.46233e-008 1.30548e-009
284
root  -2.52356 40.9471 1.16572 175.529 -84.8902 -174.942
RightUpLeg  2.38851 -1.22777 -1.84247
RightLeg  -1.65825 -14.9198 0.453416
RightFoot  -0.0919933 -0.465194 4.71191
RightToes  -3.13006e-008 1.75238e-005 3.56266e-009
Spine  -3.52583 -3.66816 -0.976853
Spine1  13.7677 -2.27978 -5.29436
HEad  -28.8782 -66.54 24.6222
LeftShoulder1  2.03772 -3.33744 -23.5338
LeftArm  -53.672 30.4343 -54.3246
LeftForeArm  139.838 -58.6168 -161.109
LeftHand  0.930675 -7.00187 -8.33318
RightShoulder  0.192554 -2.45219 11.5275
RightArm  -96.8426 2.72809 4.06605
RightForeArm  -33.7967 55.973 19.1478
RightHand  -1.44786 7.07611 -13.7175
LeftUpLeg  2.57003 1.32712 1.95316
LeftLeg  -1.25837 17.172 -1.05147
LeftFoot  -1.08222 0.207105 -2.24133
LeftToes  4.76866e-008 1.46233e-008 1.30548e-009
285
root  -2.58815 40.9442 1.14291 175.174 -85.6022 -174.721
RightUpLeg  2.69109 -1.41869 -1.91731
RightLeg  -1.557 -15.4189 0.534876
RightFoot  -0.253818 -0.458377 4.7008
RightToes  -3.13006e-008 1.75238e-005 3.56266e-009
Spine  -3.92252 -4.15463 -1.65357
Spine1  14.4917 -2.90491 -4.69108
HEad  -26.0718 -68.0019 21.2874
LeftShoulder1  2.19314 -3.7706 -23.9246
LeftArm  -53.838 29.8833 -55.3067
LeftForeArm  138.967 -58.7343 -160.958
LeftHand  0.882193 -7.13721 -7.79238
RightShoulder  0.221647 -2.31872 11.8589
RightArm  -96.5866 0.880938 4.01457
RightForeArm  -32.856 56.9409 19.8873
RightHand  -1.69418 7.75152 -15.2192
LeftUpLeg  2.70185 1.32121 1.95206
LeftLeg  -1.19543 16.4713 -1.01898
LeftFoot  -1.12776 0.200999 -2.17345
LeftToes  4.76866e-008 1.46233e-008 1.30548e-009
286
root  -2.63743 40.9364 1.11159 175.58 -85.3953 -175.323
RightUpLeg  2.83278 -1.36882 -1.85934
RightLeg  -1.28044 -15.2989 0.37649
RightFoot  -0.451765 -0.440233 4.58302
RightToes  -3.13006e-008 1.75238e-005 3.56266e-009
Spine  -4.09512 -4.32028 -2.77731
Spine1  15.0067 -3.39241 -3.41844
HEad  -24.143 -68.6434 18.4837
LeftShoulder1  2.1771 -3.68408 -24.0681
LeftArm  -53.2115 29.2975 -56.1384
LeftForeArm  138.323 -58.8615 -160.817
LeftHand  0.874038 -7.2641 -7.6403
RightShoulder  0.281885 -2.03923 12.4137
RightArm  -94.0149 -0.391195 4.10261
RightForeArm  -29.4505 59.8214 22.1816
RightHand  -1.46794 7.20253 -13.8031
LeftUpLeg  2.94674 1.4097 1.98576
LeftLeg  -1.02733 16.5658 -0.993698
LeftFoot  -1.27767 0.202275 -2.21259
LeftToes  4.76866e-008 1.46233e-008 1.30548e-009
